<svg width="25" height="20" xmlns="http://www.w3.org/2000/svg"><g id="Web" stroke="none" stroke-width="1" fill="none" fill-rule="evenodd"><g id="Create-Project" transform="translate(-17 -257)" fill="#96A1A9" fill-rule="nonzero"><g id="Group-7" transform="translate(0 1)"><g id="Dashboard" transform="translate(17 256)"><path d="M21.713 3.287a.98.98 0 0 0-1.245-.117c-1.465 1-8.818 6.024-9.609 6.814a2.942 2.942 0 0 0 0 4.157 2.93 2.93 0 0 0 2.079.859 2.93 2.93 0 0 0 2.078-.86c.79-.79 5.815-8.143 6.814-9.608a.98.98 0 0 0-.117-1.245Zm-8.083 9.468a.98.98 0 0 1-1.385-1.385c.307-.304 2.394-1.793 4.963-3.578-1.785 2.569-3.274 4.656-3.578 4.963Z" id="Shape"/><path d="m4.45 17.151-1.19.592a10.734 10.734 0 0 1-.65-8.931l1.364.666a.947.947 0 0 0 .417.097c.36 0 .705-.205.87-.558a.99.99 0 0 0-.452-1.31l-1.348-.66c1.675-2.782 4.574-4.721 7.928-5.036v1.478c0 .543.432.983.965.983.533 0 .965-.44.965-.983V2.01c1.15.107 2.262.405 3.319.89a.958.958 0 0 0 1.276-.491.99.99 0 0 0-.482-1.3A12.074 12.074 0 0 0 12.354 0c-3.3 0-6.402 1.308-8.736 3.685C1.285 6.06 0 9.22 0 12.58c0 2.483.724 4.898 2.093 6.983a.96.96 0 0 0 1.226.337l1.978-.982a.991.991 0 0 0 .444-1.315.958.958 0 0 0-1.29-.452ZM23.89 7.571a.989.989 0 0 0-1.3-.485.965.965 0 0 0-.493 1.284c.621 1.356.936 2.804.936 4.305 0 1.79-.468 3.538-1.359 5.104l-1.267-.595a.99.99 0 0 0-1.311.459.964.964 0 0 0 .465 1.293l2.065.97a.992.992 0 0 0 1.24-.337A12.25 12.25 0 0 0 23.89 7.571Z" id="Path"/></g></g></g></g></svg>