<svg width="22" height="22" xmlns="http://www.w3.org/2000/svg"><g id="Web" stroke="none" stroke-width="1" fill="none" fill-rule="evenodd"><g id="Dashboard" transform="translate(-18 -707)" fill="#A1ABB2" fill-rule="nonzero" stroke="#979797" stroke-width=".2"><g id="Group-7" transform="translate(0 1)"><g id="Logout" transform="translate(19 707)"><path d="M10.154 18.333H2.538a.84.84 0 0 1-.846-.833v-15c0-.46.38-.833.846-.833h7.616A.839.839 0 0 0 11 .833.84.84 0 0 0 10.154 0H2.538C1.138 0 0 1.122 0 2.5v15C0 18.878 1.139 20 2.538 20h7.616a.839.839 0 0 0 .846-.833.839.839 0 0 0-.846-.834Z" id="Path"/><path d="m19.76 9.39-4.916-5.143a.776.776 0 0 0-1.144.008.893.893 0 0 0 .009 1.212l3.512 3.676H7.808C7.361 9.143 7 9.526 7 10s.361.857.808.857h9.413l-3.512 3.676a.894.894 0 0 0-.009 1.212c.159.17.368.255.576.255.205 0 .41-.082.568-.247l4.915-5.143A.885.885 0 0 0 20 10a.883.883 0 0 0-.24-.61Z" id="Path"/></g></g></g></g></svg>