<svg width="85" height="76" xmlns="http://www.w3.org/2000/svg" xmlns:xlink="http://www.w3.org/1999/xlink"><defs><path id="path-1" d="M.09 26.975V9.625L15.615.085.091 26.975"/><path id="path-4" d="m31.052.085-15.524 9.54L.004.085h31.048"/><path id="path-7" d="M15.528 26.975.004.085l15.524 9.54v17.35"/><path id="path-10" d="M15.579.04v17.35L.055 26.93 15.58.04"/><path id="path-12" d="M.055 9.632 15.58.092l15.525 9.54H.055"/><path id="path-14" d="m.141.04 15.525 26.89L.141 17.39V.04"/><path id="path-16" d="M15.589.18v17.35L.066 27.07 15.59.18"/><path id="path-19" d="M.066 9.587 15.59.047l15.526 9.54H.066"/><path id="path-22" d="m.151.18 15.526 26.89L.151 17.53V.18"/><path id="path-25" d="M15.669.181v17.35L.146 27.07 15.669.18"/><path id="path-28" d="M.146 9.587 15.669.047l15.525 9.54H.146"/><path id="path-31" d="m.045.181 15.525 26.89L.045 17.53V.18"/><linearGradient x1="91.182%" y1="103.253%" x2="10.627%" y2="-.916%" id="linearGradient-3"><stop stop-color="#FFF" offset="0%"/><stop stop-color="#FFF" offset="100%"/></linearGradient><linearGradient x1="173.571%" y1="55.028%" x2="-68.143%" y2="45.193%" id="linearGradient-6"><stop stop-color="#FFF" offset="0%"/><stop stop-color="#FFF" offset="100%"/></linearGradient><linearGradient x1="91.188%" y1="103.253%" x2="10.622%" y2="-.916%" id="linearGradient-9"><stop stop-color="#FFF" offset="0%"/><stop stop-color="#FFF" offset="100%"/></linearGradient><linearGradient x1="91.177%" y1="103.253%" x2="10.632%" y2="-.916%" id="linearGradient-18"><stop stop-color="#FFF" offset="0%"/><stop stop-color="#FFF" offset="100%"/></linearGradient><linearGradient x1="173.571%" y1="55.028%" x2="-68.143%" y2="45.193%" id="linearGradient-21"><stop stop-color="#FFF" offset="0%"/><stop stop-color="#FFF" offset="100%"/></linearGradient><linearGradient x1="91.195%" y1="103.253%" x2="10.615%" y2="-.916%" id="linearGradient-24"><stop stop-color="#FFF" offset="0%"/><stop stop-color="#FFF" offset="100%"/></linearGradient><linearGradient x1="91.179%" y1="103.253%" x2="10.63%" y2="-.916%" id="linearGradient-27"><stop stop-color="#FFF" offset="0%"/><stop stop-color="#FFF" offset="100%"/></linearGradient><linearGradient x1="173.571%" y1="55.028%" x2="-68.143%" y2="45.193%" id="linearGradient-30"><stop stop-color="#FFF" offset="0%"/><stop stop-color="#FFF" offset="100%"/></linearGradient><linearGradient x1="91.193%" y1="103.253%" x2="10.617%" y2="-.916%" id="linearGradient-33"><stop stop-color="#FFF" offset="0%"/><stop stop-color="#FFF" offset="100%"/></linearGradient></defs><g id="Web" stroke="none" stroke-width="1" fill="none" fill-rule="evenodd"><g id="Login" transform="translate(-641 -70)"><g id="Logo" transform="translate(641 70)"><g id="Group-40" transform="translate(42.489 38.809)"><mask id="mask-2" fill="#fff"><use xlink:href="#path-1"/></mask><path id="Fill-38" stroke="#035FB2" fill="url('#linearGradient-3')" mask="url('#mask-2')" d="M.09 26.975V9.625L15.615.085.091 26.975"/></g><g id="Group-43" transform="translate(27.051 38.809)"><mask id="mask-5" fill="#fff"><use xlink:href="#path-4"/></mask><path id="Fill-41" stroke="#035FB2" fill="url('#linearGradient-6')" mask="url('#mask-5')" d="m31.052.085-15.524 9.54L.004.085h31.048"/></g><g id="Group-46" transform="translate(27.051 38.809)"><mask id="mask-8" fill="#fff"><use xlink:href="#path-7"/></mask><path id="Fill-44" stroke="#035FB2" fill="url('#linearGradient-9')" mask="url('#mask-8')" d="M15.528 26.975.004.085l15.524 9.54v17.35"/></g><g id="Group-49" transform="translate(26.865 9.236)"><mask id="mask-11" fill="#fff"><use xlink:href="#path-10"/></mask><path id="Fill-47" stroke="#035FB2" fill="#FFF" mask="url('#mask-11')" d="M15.579.04v17.35L.055 26.93 15.58.04"/></g><g id="Group-52" transform="translate(26.865 26.533)"><mask id="mask-13" fill="#fff"><use xlink:href="#path-12"/></mask><path id="Fill-50" stroke="#035FB2" fill="#FFF" mask="url('#mask-13')" d="M.055 9.632 15.58.092l15.525 9.54H.055"/></g><g id="Group-55" transform="translate(42.303 9.236)"><mask id="mask-15" fill="#fff"><use xlink:href="#path-14"/></mask><path id="Fill-53" stroke="#035FB2" fill="#FFF" mask="url('#mask-15')" d="m.141.04 15.525 26.89L.141 17.39V.04"/></g><path d="M47.73 6.702a5.336 5.336 0 0 1-10.673 0 5.335 5.335 0 0 1 5.336-5.333 5.336 5.336 0 0 1 5.337 5.333" id="Fill-57" fill="#81ECFF"/><path d="M42.393 2.736a3.97 3.97 0 0 0-3.967 3.966 3.971 3.971 0 0 0 3.967 3.968c2.189 0 3.97-1.78 3.97-3.968a3.973 3.973 0 0 0-3.97-3.966Zm0 10.67a6.712 6.712 0 0 1-6.704-6.704C35.689 3.006 38.697 0 42.393 0c3.698 0 6.706 3.006 6.706 6.702 0 3.697-3.008 6.704-6.706 6.704Z" id="Fill-58" fill="#FFF"/><path d="M65.674 37.531a5.335 5.335 0 0 1-5.337 5.337 5.334 5.334 0 0 1-5.334-5.337 5.334 5.334 0 0 1 5.334-5.333 5.335 5.335 0 0 1 5.337 5.333" id="Fill-59" fill="#FFFFFE"/><path d="M60.337 33.566a3.97 3.97 0 0 0-3.965 3.965 3.971 3.971 0 0 0 3.965 3.97 3.975 3.975 0 0 0 3.97-3.97 3.973 3.973 0 0 0-3.97-3.965Zm0 10.67c-3.696 0-6.701-3.006-6.701-6.705a6.709 6.709 0 0 1 6.7-6.701c3.698 0 6.707 3.006 6.707 6.701a6.713 6.713 0 0 1-6.706 6.706Z" id="Fill-60" fill="#1A4D83"/><path d="M29.885 37.531a5.336 5.336 0 0 1-10.673 0 5.336 5.336 0 0 1 5.336-5.333 5.335 5.335 0 0 1 5.337 5.333" id="Fill-61" fill="#FFFFFE"/><path d="M24.548 33.566a3.97 3.97 0 0 0-3.967 3.965 3.972 3.972 0 0 0 3.967 3.969c2.19 0 3.971-1.78 3.971-3.969a3.974 3.974 0 0 0-3.971-3.965Zm0 10.67a6.71 6.71 0 0 1-6.704-6.705 6.71 6.71 0 0 1 6.704-6.701c3.697 0 6.706 3.006 6.706 6.701 0 3.697-3.009 6.704-6.706 6.704Z" id="Fill-62" fill="#1A4D83"/><g id="Group-65" transform="translate(9.01 39.925)"><mask id="mask-17" fill="#fff"><use xlink:href="#path-16"/></mask><path id="Fill-63" stroke="#035FB2" fill="url('#linearGradient-18')" mask="url('#mask-17')" d="M15.589.18v17.35L.066 27.07 15.59.18"/></g><g id="Group-68" transform="translate(9.01 57.408)"><mask id="mask-20" fill="#fff"><use xlink:href="#path-19"/></mask><path id="Fill-66" stroke="#035FB2" fill="url('#linearGradient-21')" mask="url('#mask-20')" d="M.066 9.587 15.59.047l15.526 9.54H.066"/></g><g id="Group-71" transform="translate(24.447 39.925)"><mask id="mask-23" fill="#fff"><use xlink:href="#path-22"/></mask><path id="Fill-69" stroke="#035FB2" fill="url('#linearGradient-24')" mask="url('#mask-23')" d="m.151.18 15.526 26.89L.151 17.53V.18"/></g><path d="M9.076 66.995h31.048l-15.526-26.89-15.522 26.89Zm35.79 2.735H4.335l20.262-35.097L44.865 69.73Z" id="Fill-72" fill="#FFF" opacity=".012"/><path d="M29.885 37.531a5.337 5.337 0 0 1-10.673 0 5.336 5.336 0 0 1 5.336-5.333 5.335 5.335 0 0 1 5.337 5.333" id="Fill-73" fill="#81ECFF"/><path d="M24.548 33.566a3.97 3.97 0 0 0-3.967 3.965 3.972 3.972 0 0 0 3.967 3.969c2.19 0 3.971-1.78 3.971-3.969a3.974 3.974 0 0 0-3.971-3.965Zm0 10.67a6.712 6.712 0 0 1-6.704-6.705c0-3.695 3.009-6.702 6.704-6.702 3.697 0 6.706 3.007 6.706 6.702 0 3.697-3.009 6.704-6.706 6.704Z" id="Fill-74" fill="#FFF"/><path d="M47.83 68.361a5.335 5.335 0 0 1-5.337 5.337 5.334 5.334 0 0 1-5.335-5.337 5.335 5.335 0 0 1 10.671 0" id="Fill-75" fill="#FFFFFE"/><path d="M42.493 64.395a3.97 3.97 0 0 0-3.966 3.966 3.971 3.971 0 0 0 3.966 3.97c2.189 0 3.97-1.781 3.97-3.97a3.972 3.972 0 0 0-3.97-3.966Zm0 10.672c-3.697 0-6.702-3.008-6.702-6.706a6.71 6.71 0 0 1 6.702-6.702c3.696 0 6.705 3.007 6.705 6.702a6.713 6.713 0 0 1-6.705 6.706Z" id="Fill-76" fill="#1A4D83"/><path d="M12.04 68.361a5.336 5.336 0 1 1-10.671 0 5.336 5.336 0 0 1 10.672 0" id="Fill-77" fill="#81ECFF"/><path d="M6.703 64.395a3.971 3.971 0 0 0-3.968 3.966 3.972 3.972 0 0 0 3.968 3.967c2.19 0 3.97-1.78 3.97-3.967a3.972 3.972 0 0 0-3.97-3.966Zm0 10.67A6.71 6.71 0 0 1 0 68.361a6.71 6.71 0 0 1 6.703-6.702c3.698 0 6.707 3.007 6.707 6.702 0 3.697-3.009 6.704-6.707 6.704Z" id="Fill-78" fill="#FFF"/><g id="Group-81" transform="translate(44.72 39.925)"><mask id="mask-26" fill="#fff"><use xlink:href="#path-25"/></mask><path id="Fill-79" stroke="#035FB2" fill="url('#linearGradient-27')" mask="url('#mask-26')" d="M15.669.181v17.35L.146 27.07 15.669.18"/></g><g id="Group-84" transform="translate(44.72 57.408)"><mask id="mask-29" fill="#fff"><use xlink:href="#path-28"/></mask><path id="Fill-82" stroke="#035FB2" fill="url('#linearGradient-30')" mask="url('#mask-29')" d="M.146 9.587 15.669.047l15.525 9.54H.146"/></g><g id="Group-87" transform="translate(60.344 39.925)"><mask id="mask-32" fill="#fff"><use xlink:href="#path-31"/></mask><path id="Fill-85" stroke="#035FB2" fill="url('#linearGradient-33')" mask="url('#mask-32')" d="m.045.181 15.525 26.89L.045 17.53V.18"/></g><path d="M44.867 66.996h31.047L60.39 40.106l-15.522 26.89Zm35.788 2.736H40.127l20.262-35.098 20.266 35.098Z" id="Fill-88" fill="#FFF" opacity=".012"/><path d="M65.676 37.533a5.336 5.336 0 0 1-10.673 0 5.336 5.336 0 0 1 5.335-5.335 5.336 5.336 0 0 1 5.338 5.335" id="Fill-89" fill="#81ECFF"/><path d="M60.338 33.566a3.971 3.971 0 0 0-3.968 3.967 3.972 3.972 0 0 0 3.968 3.967c2.19 0 3.97-1.78 3.97-3.967a3.972 3.972 0 0 0-3.97-3.967Zm0 10.67a6.71 6.71 0 0 1-6.703-6.703 6.71 6.71 0 0 1 6.703-6.703c3.698 0 6.707 3.007 6.707 6.703 0 3.697-3.009 6.704-6.707 6.704Z" id="Fill-90" fill="#FFF"/><path d="M83.62 68.362a5.335 5.335 0 1 1-10.671 0 5.335 5.335 0 0 1 10.671 0" id="Fill-91" fill="#81ECFF"/><path d="M78.283 64.396a3.97 3.97 0 0 0-3.966 3.966 3.972 3.972 0 0 0 3.966 3.97c2.19 0 3.97-1.782 3.97-3.97a3.971 3.971 0 0 0-3.97-3.966Zm0 10.671c-3.696 0-6.701-3.008-6.701-6.705a6.709 6.709 0 0 1 6.7-6.702c3.698 0 6.706 3.007 6.706 6.702a6.713 6.713 0 0 1-6.705 6.705Z" id="Fill-92" fill="#FFF"/><path d="M47.831 68.362a5.337 5.337 0 0 1-5.338 5.335 5.336 5.336 0 1 1 0-10.669 5.337 5.337 0 0 1 5.338 5.334" id="Fill-93" fill="#81ECFF"/><path d="M42.493 64.396a3.97 3.97 0 0 0-3.968 3.966 3.972 3.972 0 0 0 3.968 3.968c2.19 0 3.97-1.78 3.97-3.968a3.972 3.972 0 0 0-3.97-3.966Zm0 10.67a6.71 6.71 0 0 1-6.703-6.704 6.71 6.71 0 0 1 6.703-6.702c3.698 0 6.707 3.007 6.707 6.702 0 3.697-3.009 6.705-6.707 6.705Z" id="Fill-94" fill="#FFF"/></g></g></g></svg>