<svg width="23" height="21" xmlns="http://www.w3.org/2000/svg"><g id="Web" stroke="none" stroke-width="1" fill="none" fill-rule="evenodd"><g id="Dashboard" transform="translate(-17 -317)"><g id="Group-7" transform="translate(0 1)"><g id="Project-list" transform="translate(18 317)"><g id="Group-4" fill-rule="nonzero" stroke="#96A1A9" stroke-width="1.6"><path d="M20.301 14.699H.752a.71.71 0 0 0-.529.231.764.764 0 0 0-.223.549v2.741c0 .211.074.394.223.548A.711.711 0 0 0 .752 19h19.55c.203 0 .38-.077.528-.232a.764.764 0 0 0 .223-.548V15.48a.764.764 0 0 0-.223-.549.711.711 0 0 0-.529-.231ZM20.301 7.356H.752a.71.71 0 0 0-.529.231.763.763 0 0 0-.223.548v3.12c0 .21.074.393.223.548a.711.711 0 0 0 .529.231h19.55c.203 0 .38-.077.528-.231a.763.763 0 0 0 .223-.549V8.135a.764.764 0 0 0-.223-.548.71.71 0 0 0-.529-.231ZM20.83.231A.711.711 0 0 0 20.301 0H.752a.711.711 0 0 0-.529.231A.764.764 0 0 0 0 .78v3.119c0 .211.074.394.223.548a.71.71 0 0 0 .529.232h19.55a.71.71 0 0 0 .528-.232.764.764 0 0 0 .223-.548V.779a.764.764 0 0 0-.223-.548Z" id="Path"/></g><path id="Rectangle" fill="#96A1A9" d="M0 0h6v4.471H0z"/><path id="Rectangle-Copy" fill="#96A1A9" d="M0 7.824h5v4.471H0z"/><path id="Rectangle-Copy-2" fill="#96A1A9" d="M0 14.529h11V19H0z"/></g></g></g></g></svg>